<?xml version="1.0" encoding="UTF-8" standalone="no"?>
<!-- Created with Inkscape (http://www.inkscape.org/) -->

<svg
   xmlns:dc="http://purl.org/dc/elements/1.1/"
   xmlns:cc="http://creativecommons.org/ns#"
   xmlns:rdf="http://www.w3.org/1999/02/22-rdf-syntax-ns#"
   xmlns:svg="http://www.w3.org/2000/svg"
   xmlns="http://www.w3.org/2000/svg"
   xmlns:xlink="http://www.w3.org/1999/xlink"
   xmlns:sodipodi="http://sodipodi.sourceforge.net/DTD/sodipodi-0.dtd"
   xmlns:inkscape="http://www.inkscape.org/namespaces/inkscape"
   width="400"
   height="353.82129"
   id="svg3510"
   version="1.1"
   inkscape:version="0.48.1 r9760"
   sodipodi:docname="icon-simplified.svg">
  <defs
     id="defs3512">
    <linearGradient
       y2="222.4268"
       x2="471.95261"
       y1="222.4268"
       x1="24.5518"
       gradientUnits="userSpaceOnUse"
       id="SVGID_5_">
      <stop
         id="stop64"
         style="stop-color:#D1E4A5"
         offset="0" />
      <stop
         id="stop66"
         style="stop-color:#ACD479"
         offset="0.5" />
      <stop
         id="stop68"
         style="stop-color:#76B83F"
         offset="1" />
    </linearGradient>
    <linearGradient
       gradientTransform="matrix(-0.10330579,0,0,-0.10330579,865.96689,669.4569)"
       y2="6298.4121"
       x2="8365.9355"
       y1="6298.4121"
       x1="8078.769"
       gradientUnits="userSpaceOnUse"
       id="SVGID_4_">
      <stop
         id="stop49"
         style="stop-color:#ffffff;stop-opacity:0.69999999;"
         offset="0" />
      <stop
         id="stop51"
         style="stop-color:#FFFFFF;stop-opacity:0.1075"
         offset="0.7898" />
      <stop
         id="stop53"
         style="stop-color:#FFFFFF;stop-opacity:0"
         offset="0.8848" />
    </linearGradient>
    <linearGradient
       gradientTransform="matrix(0.10330579,0,0,0.10330579,160.62566,70.907224)"
       y2="-403.71481"
       x2="-1108.022"
       y1="-403.71481"
       x1="-1395.188"
       gradientUnits="userSpaceOnUse"
       id="SVGID_3_">
      <stop
         id="stop40"
         style="stop-color:#66A236"
         offset="0" />
      <stop
         id="stop42"
         style="stop-color:#66A236;stop-opacity:0.1075"
         offset="0.7898" />
      <stop
         id="stop44"
         style="stop-color:#66A236;stop-opacity:0"
         offset="0.8848" />
    </linearGradient>
    <linearGradient
       inkscape:collect="always"
       xlink:href="#SVGID_1_"
       id="linearGradient3952"
       gradientUnits="userSpaceOnUse"
       gradientTransform="matrix(0.09469697,0,0,0.09469697,0.48031259,2.9348581)"
       x1="30.5469"
       y1="222.4268"
       x2="465.9585"
       y2="222.4268" />
    <linearGradient
       y2="222.4268"
       x2="465.9585"
       y1="222.4268"
       x1="30.5469"
       gradientUnits="userSpaceOnUse"
       id="SVGID_1_">
      <stop
         id="stop12"
         style="stop-color:#ACD479"
         offset="0" />
      <stop
         id="stop14"
         style="stop-color:#5d9630;stop-opacity:1;"
         offset="1" />
    </linearGradient>
    <linearGradient
       inkscape:collect="always"
       xlink:href="#SVGID_4_-8"
       id="linearGradient4614-4"
       gradientUnits="userSpaceOnUse"
       gradientTransform="matrix(-0.09469697,0,0,-0.09469697,1143.9877,1123.3997)"
       x1="8078.769"
       y1="6298.4121"
       x2="8365.9355"
       y2="6298.4121" />
    <linearGradient
       gradientTransform="matrix(-0.10330579,0,0,-0.10330579,865.96689,669.4569)"
       y2="6298.4121"
       x2="8365.9355"
       y1="6298.4121"
       x1="8078.769"
       gradientUnits="userSpaceOnUse"
       id="SVGID_4_-8">
      <stop
         id="stop49-9"
         style="stop-color:#FFFFFF"
         offset="0" />
      <stop
         id="stop51-6"
         style="stop-color:#FFFFFF;stop-opacity:0.1075"
         offset="0.7898" />
      <stop
         id="stop53-7"
         style="stop-color:#FFFFFF;stop-opacity:0"
         offset="0.8848" />
    </linearGradient>
    <linearGradient
       inkscape:collect="always"
       xlink:href="#SVGID_4_-7"
       id="linearGradient4848-7"
       gradientUnits="userSpaceOnUse"
       gradientTransform="matrix(-0.0845837,0,0,-0.08095247,1060.2014,1034.7793)"
       x1="8078.769"
       y1="6298.4121"
       x2="8365.9355"
       y2="6298.4121" />
    <linearGradient
       gradientTransform="matrix(-0.10330579,0,0,-0.10330579,865.96689,669.4569)"
       y2="6298.4121"
       x2="8365.9355"
       y1="6298.4121"
       x1="8078.769"
       gradientUnits="userSpaceOnUse"
       id="SVGID_4_-7">
      <stop
         id="stop49-7"
         style="stop-color:#ffffff;stop-opacity:0.69999999;"
         offset="0" />
      <stop
         id="stop51-69"
         style="stop-color:#FFFFFF;stop-opacity:0.1075"
         offset="0.7898" />
      <stop
         id="stop53-1"
         style="stop-color:#FFFFFF;stop-opacity:0"
         offset="0.8848" />
    </linearGradient>
    <linearGradient
       inkscape:collect="always"
       xlink:href="#SVGID_4_"
       id="linearGradient8175"
       gradientUnits="userSpaceOnUse"
       gradientTransform="matrix(-0.0845837,0,0,-0.08095247,1060.2014,1034.7793)"
       x1="8078.769"
       y1="6298.4121"
       x2="8365.9355"
       y2="6298.4121" />
    <linearGradient
       inkscape:collect="always"
       xlink:href="#SVGID_4_-7"
       id="linearGradient8177"
       gradientUnits="userSpaceOnUse"
       gradientTransform="matrix(0.0845837,0,0,0.08095247,-316.16468,28.638186)"
       x1="8078.769"
       y1="6298.4121"
       x2="8365.9355"
       y2="6298.4121" />
  </defs>
  <sodipodi:namedview
     id="base"
     pagecolor="#ffffff"
     bordercolor="#666666"
     borderopacity="1.0"
     inkscape:pageopacity="0.0"
     inkscape:pageshadow="2"
     inkscape:zoom="0.35"
     inkscape:cx="-241.45473"
     inkscape:cy="377.66584"
     inkscape:document-units="px"
     inkscape:current-layer="layer1"
     showgrid="false"
     inkscape:window-width="1680"
     inkscape:window-height="971"
     inkscape:window-x="0"
     inkscape:window-y="25"
     inkscape:window-maximized="1"
     fit-margin-top="0"
     fit-margin-left="0"
     fit-margin-right="0"
     fit-margin-bottom="0" />
  <metadata
     id="metadata3515">
    <rdf:RDF>
      <cc:Work
         rdf:about="">
        <dc:format>image/svg+xml</dc:format>
        <dc:type
           rdf:resource="http://purl.org/dc/dcmitype/StillImage" />
      </cc:Work>
    </rdf:RDF>
  </metadata>
  <g
     inkscape:label="Layer 1"
     inkscape:groupmode="layer"
     id="layer1"
     transform="translate(-208.55855,-466.35643)">
    <g
       id="g8071"
       transform="matrix(9.4411948,0,0,9.4411948,-3105.2067,-4376.8886)">
      <g
         style="fill:#88d14a;fill-opacity:1"
         transform="matrix(0.09469697,0,0,0.09469697,348.66503,510.66569)"
         id="g61">
        <linearGradient
           y2="222.4268"
           x2="471.95261"
           y1="222.4268"
           x1="24.5518"
           gradientUnits="userSpaceOnUse"
           id="linearGradient3941">
          <stop
             id="stop3943"
             style="stop-color:#D1E4A5"
             offset="0" />
          <stop
             id="stop3945"
             style="stop-color:#ACD479"
             offset="0.5" />
          <stop
             id="stop3947"
             style="stop-color:#76B83F"
             offset="1" />
        </linearGradient>
        <path
           inkscape:connector-curvature="0"
           style="fill:#88d14a;fill-opacity:1"
           id="path70"
           d="m 345.568,36.552 c 5.5,0 12.25,3.896 15,8.66 l 97.314,168.555 c 2.75,4.762 2.75,12.557 0,17.32 l -97.314,168.555 c -2.75,4.764 -9.5,8.66 -15,8.66 H 150.937 c -5.5,0 -12.25,-3.896 -15,-8.66 L 38.623,231.087 c -2.75,-4.764 -2.75,-12.559 0,-17.32 L 135.937,45.212 c 2.75,-4.764 9.5,-8.66 15,-8.66 h 194.631 m 0,-12 H 150.937 c -9.809,0 -20.486,6.164 -25.391,14.658 L 28.23,207.767 c -4.904,8.494 -4.904,20.826 0,29.32 l 97.316,168.555 c 4.902,8.494 15.582,14.66 25.391,14.66 h 194.631 c 9.809,0 20.488,-6.166 25.393,-14.66 l 97.314,-168.555 c 4.904,-8.494 4.904,-20.826 0,-29.322 L 370.96,39.212 c -4.906,-8.496 -15.584,-14.66 -25.392,-14.66 l 0,0 z" />
      </g>
      <path
         d="m 362.95839,549.89883 c -0.72689,0 -1.54895,-0.47461 -1.9124,-1.10416 l -9.21563,-15.96165 c -0.36344,-0.62954 -0.36344,-1.57898 0,-2.20833 l 9.21554,-15.96165 c 0.36345,-0.62954 1.1856,-1.10417 1.9124,-1.10417 h 18.43097 c 0.72689,0 1.54895,0.47463 1.9124,1.10417 l 9.21554,15.96165 c 0.36344,0.62935 0.36344,1.57879 0,2.20833 l -9.21554,15.96165 c -0.36345,0.62955 -1.1856,1.10416 -1.9124,1.10416 h -18.43088 z"
         id="path16"
         style="fill:#6fa441;fill-opacity:1"
         inkscape:connector-curvature="0" />
      <path
         d="m 356.73743,535.87682 c 0.0884,-0.43066 0.18616,-0.86198 0.29359,-1.29378 2.73375,-10.98363 10.8635,-19.00626 19.83825,-20.64539 h -15.21246 l -9.0771,15.04705 4.15772,6.89212 z"
         id="path55"
         style="opacity:0.2;fill:url(#linearGradient8175)"
         inkscape:connector-curvature="0" />
      <g
         inkscape:export-ydpi="613.64001"
         inkscape:export-xdpi="613.64001"
         inkscape:export-filename="/home/seadog/Projects/melisi/logos/logo.png"
         style="fill:#f2f2f2;stroke:none"
         transform="matrix(0.55943464,0.47845443,-0.47845443,0.55943464,342.36423,485.1882)"
         id="g4276">
        <g
           style="fill:#f2f2f2;stroke:none"
           id="g15999"
           transform="matrix(-0.35412707,0,0,0.35412707,86.784789,3.8462118)">
          <path
             transform="matrix(1.22124,0,0,1.22124,-25.9363,-16.5575)"
             d="m 75.200003,43.200001 c 0,5.743761 -4.656239,10.399999 -10.4,10.399999 -5.743761,0 -10.4,-4.656238 -10.4,-10.399999 0,-5.743761 4.656239,-10.4 10.4,-10.4 5.743761,0 10.4,4.656239 10.4,10.4 z"
             sodipodi:ry="10.4"
             sodipodi:rx="10.4"
             sodipodi:cy="43.200001"
             sodipodi:cx="64.800003"
             id="path15590"
             style="fill:#f2f2f2;fill-opacity:1;stroke:none"
             sodipodi:type="arc" />
          <path
             id="path15590-7"
             d="M 54.432738,59.558571 C 51.781305,72.461665 39.578777,84.137338 27.177632,85.636916 14.776486,87.136494 6.872782,77.892117 9.524215,64.989022 12.175648,52.085927 24.378177,40.410251 36.779322,38.910673 49.180467,37.411096 57.084171,46.655475 54.432738,59.558571 z"
             style="fill:#f2f2f2;fill-opacity:1;stroke:none"
             inkscape:connector-curvature="0" />
          <path
             sodipodi:nodetypes="czc"
             inkscape:connector-curvature="0"
             id="path14800"
             d="m 46,45.8 c 18.6,1.6 46.132108,11.217481 35.8,26 -10.332108,14.782519 -31,-8.4 -35.8,-26 z"
             style="fill:#f2f2f2;fill-opacity:1;stroke:none" />
          <path
             id="path15630"
             d="m 23.84375,44.125 c -2.187597,1.525887 -4.229743,3.310856 -6.0625,5.3125 1.638672,0.12654 3.550033,0.297682 5.71875,0.59375 5.407962,0.738282 11.766434,2.261137 14.78125,4.3125 l 0.125,0.09375 c 2.959669,2.084856 6.865623,7.662621 9.71875,12.6875 0.641332,1.129504 1.209461,2.191838 1.75,3.21875 1.429077,-2.19338 2.608837,-4.523757 3.46875,-6.9375 -2.044599,-6.089496 -4.546895,-12.948722 -9.03125,-16 C 39.787308,44.327187 31.893592,44.080093 25.25,44.125 c -0.814603,0.0055 -0.651868,-0.0039 -1.40625,0 z M 13.5625,55.03125 c -1.121944,1.829548 -2.07759,3.743463 -2.8125,5.71875 1.17956,0.115227 2.443435,0.254865 3.78125,0.4375 5.66181,0.772937 12.31242,2.352347 15.46875,4.5 l 0.15625,0.09375 c 3.098596,2.182718 7.169197,8.020504 10.15625,13.28125 0.173124,0.304904 0.301897,0.574929 0.46875,0.875 1.816943,-1.330402 3.530558,-2.834625 5.09375,-4.5 -2.155278,-6.434038 -4.808923,-13.765536 -9.5625,-17 -4.737603,-3.223593 -12.98206,-3.453265 -19.9375,-3.40625 -1.625936,0.01099 -1.432821,-0.0051 -2.8125,0 z M 9.28125,66.375 c -0.2536259,1.690203 -0.3208763,3.310794 -0.21875,4.84375 4.396398,0.612593 9.496134,1.838829 11.9375,3.5 l 0.09375,0.09375 c 2.424988,1.708214 5.631056,6.257894 7.96875,10.375 0.02442,0.043 0.03824,0.08211 0.0625,0.125 1.615207,-0.332279 3.210486,-0.824636 4.78125,-1.46875 -0.162365,-0.465176 -0.304675,-0.884697 -0.46875,-1.375 -1.692456,-5.057546 -3.756784,-10.859262 -7.5,-13.40625 -3.70769,-2.522812 -10.181612,-2.724294 -15.625,-2.6875 -0.5967768,0.004 -0.4733345,-0.0031 -1.03125,0 z"
             style="font-size:medium;font-style:normal;font-variant:normal;font-weight:normal;font-stretch:normal;text-indent:0;text-align:start;text-decoration:none;line-height:normal;letter-spacing:normal;word-spacing:normal;text-transform:none;direction:ltr;block-progression:tb;writing-mode:lr-tb;text-anchor:start;baseline-shift:baseline;color:#000000;fill:#f2f2f2;fill-opacity:1;stroke:none;stroke-width:5;marker:none;visibility:visible;display:inline;overflow:visible;enable-background:accumulate;font-family:Sans;-inkscape-font-specification:Sans"
             inkscape:connector-curvature="0" />
          <path
             inkscape:transform-center-y="18.599648"
             inkscape:transform-center-x="-9.433676"
             sodipodi:nodetypes="czc"
             inkscape:connector-curvature="0"
             id="path14800-1"
             d="M 45.302445,46.719083 C 57.148832,55.904979 71.524535,74.390904 58.113617,79.856888 44.702691,85.322866 40.868531,60.68053 45.302445,46.719083 z"
             style="color:#000000;fill:#f2f2f2;fill-opacity:1;fill-rule:nonzero;stroke:none;stroke-width:1.79999995;marker:none;visibility:visible;display:inline;overflow:visible;enable-background:accumulate" />
          <path
             transform="matrix(0.805826,0,0.557175,0.863396,-20.5734,-3.49719)"
             d="m 75.200003,43.200001 c 0,5.743761 -4.656239,10.399999 -10.4,10.399999 -5.743761,0 -10.4,-4.656238 -10.4,-10.399999 0,-5.743761 4.656239,-10.4 10.4,-10.4 5.743761,0 10.4,4.656239 10.4,10.4 z"
             sodipodi:ry="10.4"
             sodipodi:rx="10.4"
             sodipodi:cy="43.200001"
             sodipodi:cx="64.800003"
             id="path15590-8"
             style="fill:#f2f2f2;fill-opacity:1;stroke:none"
             sodipodi:type="arc" />
          <path
             sodipodi:nodetypes="czzzc"
             inkscape:connector-curvature="0"
             id="path15841"
             d="m 64.7,31.4 c 9.875,-0.2 11.102309,-1.052474 13.15,1.675 2.047691,2.727474 3.149541,7.287054 0.6,7.3 -2.549541,0.01295 -2.404992,-4.507613 -3.143406,-6.362166 C 74.56818,32.158282 69.8,31.7125 64.7,31.4 z"
             style="fill:#f2f2f2;stroke:none" />
          <path
             sodipodi:nodetypes="czzzc"
             inkscape:connector-curvature="0"
             id="path15841-2"
             d="m 54.138072,24.758791 c 3.35e-4,-9.877024 0.827826,-11.121315 -1.940486,-13.113452 -2.76831,-1.9921359 -7.349233,-3.0015886 -7.310636,-0.452307 0.03859,2.549282 4.555308,2.313379 6.424409,3.014152 1.8691,0.700773 2.41118,5.458967 2.826713,10.551607 z"
             style="fill:#f2f2f2;stroke:none" />
          <g
             style="color:#000000;fill:#f2f2f2;fill-opacity:1;fill-rule:nonzero;stroke:none;stroke-width:1.79999995;marker:none;visibility:visible;display:inline;overflow:visible;enable-background:accumulate"
             transform="matrix(0,-1,-1,0,75.6852,75.256)"
             id="g15882">
            <path
               style="color:#000000;fill:#f2f2f2;fill-opacity:1;fill-rule:nonzero;stroke:none;stroke-width:1.79999995;marker:none;visibility:visible;display:inline;overflow:visible;enable-background:accumulate"
               d="m 29.702429,30.082575 c 18.6,1.6 46.132108,11.217481 35.8,26 -10.332108,14.782519 -31,-8.4 -35.8,-26 z"
               id="path14800-4"
               inkscape:connector-curvature="0"
               sodipodi:nodetypes="czc" />
            <path
               style="color:#000000;fill:#f2f2f2;fill-opacity:1;fill-rule:nonzero;stroke:none;stroke-width:1.79999995;marker:none;visibility:visible;display:inline;overflow:visible;enable-background:accumulate"
               d="M 29.004874,31.001658 C 40.851261,40.187554 55.226964,58.673479 41.816046,64.139463 28.40512,69.605441 24.57096,44.963105 29.004874,31.001658 z"
               id="path14800-1-5"
               inkscape:connector-curvature="0"
               sodipodi:nodetypes="czc"
               inkscape:transform-center-x="-9.433676"
               inkscape:transform-center-y="18.599648" />
          </g>
          <path
             inkscape:connector-curvature="0"
             id="path15886"
             d="m 13.912349,81.551204 -5.3280117,9.45994 8.1551207,-7.393976 z"
             style="fill:#f2f2f2;stroke:none" />
          <path
             transform="matrix(0,0.961035,-1.06975,0.664492,77.9753,-29.7058)"
             d="m 75.200003,43.200001 c 0,5.743761 -4.656239,10.399999 -10.4,10.399999 -5.743761,0 -10.4,-4.656238 -10.4,-10.399999 0,-5.743761 4.656239,-10.4 10.4,-10.4 5.743761,0 10.4,4.656239 10.4,10.4 z"
             sodipodi:ry="10.4"
             sodipodi:rx="10.4"
             sodipodi:cy="43.200001"
             sodipodi:cx="64.800003"
             id="path15590-8-1"
             style="fill:#f2f2f2;fill-opacity:1;stroke:none"
             sodipodi:type="arc" />
        </g>
      </g>
      <path
         d="m 387.29934,527.54063 c -0.0884,0.43066 -0.18616,0.86198 -0.29359,1.29378 -2.73375,10.98363 -10.8635,19.00626 -19.83826,20.64539 l 15.21247,0 9.0771,-15.04705 -4.15772,-6.89212 z"
         id="path55-1"
         style="opacity:0.2;fill:url(#linearGradient8177)"
         inkscape:connector-curvature="0" />
      <g
         id="g8022"
         transform="matrix(0.55943464,0.47845443,-0.47845443,0.55943464,342.38442,485.05508)"
         style="fill:#ffffff;stroke:none"
         inkscape:export-filename="/home/seadog/Projects/melisi/logos/logo.png"
         inkscape:export-xdpi="613.64001"
         inkscape:export-ydpi="613.64001">
        <g
           transform="matrix(-0.35412707,0,0,0.35412707,86.784789,3.8462118)"
           id="g8024"
           style="fill:#ffffff;stroke:none">
          <path
             sodipodi:type="arc"
             style="fill:#ffffff;fill-opacity:1;stroke:none"
             id="path8026"
             sodipodi:cx="64.800003"
             sodipodi:cy="43.200001"
             sodipodi:rx="10.4"
             sodipodi:ry="10.4"
             d="m 75.200003,43.200001 c 0,5.743761 -4.656239,10.399999 -10.4,10.399999 -5.743761,0 -10.4,-4.656238 -10.4,-10.399999 0,-5.743761 4.656239,-10.4 10.4,-10.4 5.743761,0 10.4,4.656239 10.4,10.4 z"
             transform="matrix(1.22124,0,0,1.22124,-25.9363,-16.5575)" />
          <path
             inkscape:connector-curvature="0"
             style="fill:#ffffff;fill-opacity:1;stroke:none"
             d="M 54.432738,59.558571 C 51.781305,72.461665 39.578777,84.137338 27.177632,85.636916 14.776486,87.136494 6.872782,77.892117 9.524215,64.989022 12.175648,52.085927 24.378177,40.410251 36.779322,38.910673 49.180467,37.411096 57.084171,46.655475 54.432738,59.558571 z"
             id="path8028" />
          <path
             style="fill:#ffffff;fill-opacity:1;stroke:none"
             d="m 46,45.8 c 18.6,1.6 46.132108,11.217481 35.8,26 -10.332108,14.782519 -31,-8.4 -35.8,-26 z"
             id="path8030"
             inkscape:connector-curvature="0"
             sodipodi:nodetypes="czc" />
          <path
             inkscape:connector-curvature="0"
             style="font-size:medium;font-style:normal;font-variant:normal;font-weight:normal;font-stretch:normal;text-indent:0;text-align:start;text-decoration:none;line-height:normal;letter-spacing:normal;word-spacing:normal;text-transform:none;direction:ltr;block-progression:tb;writing-mode:lr-tb;text-anchor:start;baseline-shift:baseline;color:#000000;fill:#ffffff;fill-opacity:1;stroke:none;stroke-width:5;marker:none;visibility:visible;display:inline;overflow:visible;enable-background:accumulate;font-family:Sans;-inkscape-font-specification:Sans"
             d="m 23.84375,44.125 c -2.187597,1.525887 -4.229743,3.310856 -6.0625,5.3125 1.638672,0.12654 3.550033,0.297682 5.71875,0.59375 5.407962,0.738282 11.766434,2.261137 14.78125,4.3125 l 0.125,0.09375 c 2.959669,2.084856 6.865623,7.662621 9.71875,12.6875 0.641332,1.129504 1.209461,2.191838 1.75,3.21875 1.429077,-2.19338 2.608837,-4.523757 3.46875,-6.9375 -2.044599,-6.089496 -4.546895,-12.948722 -9.03125,-16 C 39.787308,44.327187 31.893592,44.080093 25.25,44.125 c -0.814603,0.0055 -0.651868,-0.0039 -1.40625,0 z M 13.5625,55.03125 c -1.121944,1.829548 -2.07759,3.743463 -2.8125,5.71875 1.17956,0.115227 2.443435,0.254865 3.78125,0.4375 5.66181,0.772937 12.31242,2.352347 15.46875,4.5 l 0.15625,0.09375 c 3.098596,2.182718 7.169197,8.020504 10.15625,13.28125 0.173124,0.304904 0.301897,0.574929 0.46875,0.875 1.816943,-1.330402 3.530558,-2.834625 5.09375,-4.5 -2.155278,-6.434038 -4.808923,-13.765536 -9.5625,-17 -4.737603,-3.223593 -12.98206,-3.453265 -19.9375,-3.40625 -1.625936,0.01099 -1.432821,-0.0051 -2.8125,0 z M 9.28125,66.375 c -0.2536259,1.690203 -0.3208763,3.310794 -0.21875,4.84375 4.396398,0.612593 9.496134,1.838829 11.9375,3.5 l 0.09375,0.09375 c 2.424988,1.708214 5.631056,6.257894 7.96875,10.375 0.02442,0.043 0.03824,0.08211 0.0625,0.125 1.615207,-0.332279 3.210486,-0.824636 4.78125,-1.46875 -0.162365,-0.465176 -0.304675,-0.884697 -0.46875,-1.375 -1.692456,-5.057546 -3.756784,-10.859262 -7.5,-13.40625 -3.70769,-2.522812 -10.181612,-2.724294 -15.625,-2.6875 -0.5967768,0.004 -0.4733345,-0.0031 -1.03125,0 z"
             id="path8032" />
          <path
             style="color:#000000;fill:#ffffff;fill-opacity:1;fill-rule:nonzero;stroke:none;stroke-width:1.79999995;marker:none;visibility:visible;display:inline;overflow:visible;enable-background:accumulate"
             d="M 45.302445,46.719083 C 57.148832,55.904979 71.524535,74.390904 58.113617,79.856888 44.702691,85.322866 40.868531,60.68053 45.302445,46.719083 z"
             id="path8034"
             inkscape:connector-curvature="0"
             sodipodi:nodetypes="czc"
             inkscape:transform-center-x="-9.433676"
             inkscape:transform-center-y="18.599648" />
          <path
             sodipodi:type="arc"
             style="fill:#ffffff;fill-opacity:1;stroke:none"
             id="path8036"
             sodipodi:cx="64.800003"
             sodipodi:cy="43.200001"
             sodipodi:rx="10.4"
             sodipodi:ry="10.4"
             d="m 75.200003,43.200001 c 0,5.743761 -4.656239,10.399999 -10.4,10.399999 -5.743761,0 -10.4,-4.656238 -10.4,-10.399999 0,-5.743761 4.656239,-10.4 10.4,-10.4 5.743761,0 10.4,4.656239 10.4,10.4 z"
             transform="matrix(0.805826,0,0.557175,0.863396,-20.5734,-3.49719)" />
          <path
             style="fill:#ffffff;stroke:none"
             d="m 64.7,31.4 c 9.875,-0.2 11.102309,-1.052474 13.15,1.675 2.047691,2.727474 3.149541,7.287054 0.6,7.3 -2.549541,0.01295 -2.404992,-4.507613 -3.143406,-6.362166 C 74.56818,32.158282 69.8,31.7125 64.7,31.4 z"
             id="path8038"
             inkscape:connector-curvature="0"
             sodipodi:nodetypes="czzzc" />
          <path
             style="fill:#ffffff;stroke:none"
             d="m 54.138072,24.758791 c 3.35e-4,-9.877024 0.827826,-11.121315 -1.940486,-13.113452 -2.76831,-1.9921359 -7.349233,-3.0015886 -7.310636,-0.452307 0.03859,2.549282 4.555308,2.313379 6.424409,3.014152 1.8691,0.700773 2.41118,5.458967 2.826713,10.551607 z"
             id="path8040"
             inkscape:connector-curvature="0"
             sodipodi:nodetypes="czzzc" />
          <g
             id="g8042"
             transform="matrix(0,-1,-1,0,75.6852,75.256)"
             style="color:#000000;fill:#ffffff;fill-opacity:1;fill-rule:nonzero;stroke:none;stroke-width:1.79999995;marker:none;visibility:visible;display:inline;overflow:visible;enable-background:accumulate">
            <path
               sodipodi:nodetypes="czc"
               inkscape:connector-curvature="0"
               id="path8044"
               d="m 29.702429,30.082575 c 18.6,1.6 46.132108,11.217481 35.8,26 -10.332108,14.782519 -31,-8.4 -35.8,-26 z"
               style="color:#000000;fill:#ffffff;fill-opacity:1;fill-rule:nonzero;stroke:none;stroke-width:1.79999995;marker:none;visibility:visible;display:inline;overflow:visible;enable-background:accumulate" />
            <path
               inkscape:transform-center-y="18.599648"
               inkscape:transform-center-x="-9.433676"
               sodipodi:nodetypes="czc"
               inkscape:connector-curvature="0"
               id="path8046"
               d="M 29.004874,31.001658 C 40.851261,40.187554 55.226964,58.673479 41.816046,64.139463 28.40512,69.605441 24.57096,44.963105 29.004874,31.001658 z"
               style="color:#000000;fill:#ffffff;fill-opacity:1;fill-rule:nonzero;stroke:none;stroke-width:1.79999995;marker:none;visibility:visible;display:inline;overflow:visible;enable-background:accumulate" />
          </g>
          <path
             style="fill:#ffffff;stroke:none"
             d="m 13.912349,81.551204 -5.3280117,9.45994 8.1551207,-7.393976 z"
             id="path8048"
             inkscape:connector-curvature="0" />
          <path
             sodipodi:type="arc"
             style="fill:#ffffff;fill-opacity:1;stroke:none"
             id="path8050"
             sodipodi:cx="64.800003"
             sodipodi:cy="43.200001"
             sodipodi:rx="10.4"
             sodipodi:ry="10.4"
             d="m 75.200003,43.200001 c 0,5.743761 -4.656239,10.399999 -10.4,10.399999 -5.743761,0 -10.4,-4.656238 -10.4,-10.399999 0,-5.743761 4.656239,-10.4 10.4,-10.4 5.743761,0 10.4,4.656239 10.4,10.4 z"
             transform="matrix(0,0.961035,-1.06975,0.664492,77.9753,-29.7058)" />
        </g>
      </g>
    </g>
  </g>
</svg>
