<?xml version="1.0" encoding="UTF-8" standalone="no"?>
<!-- Generator: Adobe Illustrator 12.0.0, SVG Export Plug-In . SVG Version: 6.00 Build 51448)  -->
<svg xmlns:dc="http://purl.org/dc/elements/1.1/" xmlns:cc="http://web.resource.org/cc/" xmlns:rdf="http://www.w3.org/1999/02/22-rdf-syntax-ns#" xmlns:svg="http://www.w3.org/2000/svg" xmlns="http://www.w3.org/2000/svg" xmlns:sodipodi="http://sodipodi.sourceforge.net/DTD/sodipodi-0.dtd" xmlns:inkscape="http://www.inkscape.org/namespaces/inkscape" height="137.77998" id="Layer_1" inkscape:version="0.45.1" sodipodi:docbase="/Users/johnolsen/Desktop/openclipart-0.20-pre/recovered-zerobyte-files/unsorted" sodipodi:docname="database_base_de_donn__01r.svg" sodipodi:version="0.32" space="preserve" style="overflow: visible;" version="1.0" viewBox="0 0 119.064 137.78" width="119.41441" inkscape:output_extension="org.inkscape.output.svg.inkscape">
  <metadata id="metadata3">
    <rdf:RDF>
      <cc:Work rdf:about="">
        <dc:title>Database, Base de donnée</dc:title>
        <dc:description/>
        <dc:subject>
          <rdf:Bag>
            <rdf:li>computer</rdf:li>
            <rdf:li>database</rdf:li>
          </rdf:Bag>
        </dc:subject>
        <dc:publisher>
          <cc:Agent rdf:about="http://www.openclipart.org/">
            <dc:title>Open Clip Art Library</dc:title>
          </cc:Agent>
        </dc:publisher>
        <dc:creator>
          <cc:Agent>
            <dc:title>Architetto Francesco Rollandin</dc:title>
          </cc:Agent>
        </dc:creator>
        <dc:rights>
          <cc:Agent>
            <dc:title>Architetto Francesco Rollandin</dc:title>
          </cc:Agent>
        </dc:rights>
        <dc:date/>
        <dc:format>image/svg+xml</dc:format>
        <dc:type rdf:resource="http://purl.org/dc/dcmitype/StillImage"/>
        <cc:license rdf:resource="http://web.resource.org/cc/PublicDomain"/>
        <dc:language>en</dc:language>
      </cc:Work>
      <cc:License rdf:about="http://web.resource.org/cc/PublicDomain">
        <cc:permits rdf:resource="http://web.resource.org/cc/Reproduction"/>
        <cc:permits rdf:resource="http://web.resource.org/cc/Distribution"/>
        <cc:permits rdf:resource="http://web.resource.org/cc/DerivativeWorks"/>
      </cc:License>
    </rdf:RDF>
  </metadata>
  <defs id="defs94"/>
  <sodipodi:namedview bordercolor="#666666" borderopacity="1.0" id="base" inkscape:current-layer="Layer_1" inkscape:cx="59.532001" inkscape:cy="68.889999" inkscape:pageopacity="0.0" inkscape:pageshadow="2" inkscape:window-height="510" inkscape:window-width="787" inkscape:window-x="22" inkscape:window-y="29" inkscape:zoom="2.6128611" pagecolor="#ffffff"/>
  <g id="g3" transform="translate(0.000409596, -0.000167847)">
    <linearGradient gradientUnits="userSpaceOnUse" id="XMLID_7_" x1="0.94679999" x2="117.5381" y1="109.2632" y2="109.2632">
      <stop id="stop6" offset="0" style="stop-color: rgb(223, 223, 223);"/>
      <stop id="stop8" offset="0.2168" style="stop-color: rgb(218, 218, 218);"/>
      <stop id="stop10" offset="0.4798" style="stop-color: rgb(203, 203, 203);"/>
      <stop id="stop12" offset="0.7655" style="stop-color: rgb(179, 179, 179);"/>
      <stop id="stop14" offset="1" style="stop-color: rgb(154, 153, 153);"/>
    </linearGradient>
    <path d="M 59.245,81.758 C 43.047,81.758 24.953,82.672 9.891,89.29 C 0.189,93.554 1.029,98.716 1.029,108.11 C 1.029,118.173 -0.524,124.659 9.891,129.235 C 24.953,135.853 43.047,136.767 59.245,136.767 C 75.441,136.767 93.535,135.853 108.598,129.235 C 119.006,124.66 117.457,118.188 117.457,108.128 C 117.457,98.728 118.305,93.556 108.598,89.29 C 93.535,82.672 75.441,81.758 59.245,81.758" id="path16" style="fill: url(&quot;#XMLID_7_&quot;) rgb(0, 0, 0);"/>
    <linearGradient gradientTransform="matrix(0, 205.54, 205.54, 0, -94889.9, 51048.4)" gradientUnits="userSpaceOnUse" id="XMLID_8_" x1="-248.4731" x2="-246.68941" y1="461.95169" y2="461.95169">
      <stop id="stop19" offset="0" style="stop-color: rgb(255, 255, 255);"/>
      <stop id="stop21" offset="1" style="stop-color: rgb(0, 0, 0);"/>
    </linearGradient>
    <path d="M 0.111,97.803 C 0.111,105.281 0.111,112.755 0.111,120.233 C 0.111,130.94 20.355,133.816 27.76,135.117 C 46.797,138.457 66.714,138.588 85.837,135.888 C 93.256,134.84 118.374,132.124 118.374,120.723 C 119.556,113.659 118.374,105.47 118.374,98.293 C 118.374,87.588 98.13,84.711 90.726,83.411 C 71.688,80.067 51.773,79.938 32.65,82.638 C 25.231,83.686 0.111,86.404 0.111,97.803 M 1.945,120.723 C 1.945,113.608 0.382,104.714 1.945,97.803 C 1.945,88.851 23.465,85.933 29.157,84.974 C 48.818,81.664 69.672,81.664 89.332,84.974 C 95.022,85.933 116.541,88.851 116.541,97.803 C 117.268,101.02 116.541,105.236 116.541,108.517 C 116.541,112.258 117.371,117.059 116.541,120.723 C 116.541,129.677 95.025,132.593 89.332,133.553 C 69.672,136.863 48.817,136.863 29.157,133.553 C 23.463,132.593 1.945,129.677 1.945,120.723" id="path23" style="fill: url(&quot;#XMLID_8_&quot;) rgb(0, 0, 0);"/>
    <path d="M 115.27,94.8 C 115.954,99.364 115.321,104.446 115.321,109.048 C 115.321,112.615 116.537,118.407 113.975,121.416 C 109.704,126.432 101.471,128.322 95.398,129.752 C 83.598,132.526 71.34,133.404 59.246,133.404 C 47.794,133.404 36.231,132.596 25.016,130.183 C 18.434,128.767 10.104,126.943 5.098,122.037 C 2.114,119.114 3.169,114.277 3.169,110.495 C 3.169,105.448 2.427,99.798 3.221,94.799 C 0.182,98.452 1.946,107.188 1.946,111.491 C 1.946,115.006 0.728,120.798 3.248,123.772 C 7.378,128.654 15.358,130.523 21.247,131.947 C 33.632,134.94 46.539,135.848 59.247,135.848 C 71.333,135.848 83.557,135 95.378,132.377 C 101.759,130.962 109.837,129.156 114.68,124.379 C 117.603,121.495 116.543,116.651 116.543,112.94 C 116.541,108.353 118.5,98.683 115.27,94.8" id="path25" style="fill: rgb(198, 198, 198);"/>
    <path d="M 115.32,101.431 C 115.32,104.525 105.789,107.987 103.821,108.773 C 90.73,113.999 76.141,115.358 62.174,115.547 C 46.926,115.754 31.117,114.491 16.682,109.231 C 15.898,108.947 1.985,103.03 3.19,101.36 C 3.452,100.997 14.864,105.542 15.639,105.76 C 30.681,109.995 46.639,110.906 62.19,110.738 C 76.086,110.591 90.293,109.513 103.693,105.593 C 104.532,105.349 115.32,102.036 115.32,101.431" id="path27" style="fill: rgb(229, 229, 229);"/>
    <path d="M 59.245,0.097 C 42.932,0.097 24.673,1.076 9.507,7.709 C -0.749,12.193 0.111,18.006 0.111,27.771 C 0.111,36.992 -1.552,43.934 7.972,48.615 C 23.213,56.105 42.597,56.938 59.245,56.938 C 75.558,56.938 93.813,55.957 108.979,49.325 C 119.235,44.84 118.375,39.028 118.375,29.263 C 118.375,20.041 120.038,13.099 110.515,8.419 C 95.274,0.93 75.892,0.097 59.245,0.097" id="path29" style="fill: rgb(244, 242, 242);"/>
    <path d="M 6.055,93.085 C 10.97,97.991 19.151,99.774 25.676,101.159 C 36.673,103.494 48.018,104.355 59.245,104.355 C 69.704,104.355 80.236,103.584 90.518,101.621 C 97.71,100.248 107.015,98.496 112.436,93.085 C 107.521,88.176 99.34,86.394 92.814,85.007 C 81.818,82.672 70.472,81.811 59.245,81.811 C 48.786,81.811 38.254,82.582 27.972,84.544 C 20.78,85.917 11.475,87.671 6.055,93.085" id="path31" style="fill: rgb(124, 124, 124);"/>
    <linearGradient gradientUnits="userSpaceOnUse" id="XMLID_9_" x1="0.94679999" x2="117.5381" y1="68.888199" y2="68.888199">
      <stop id="stop34" offset="0" style="stop-color: rgb(223, 223, 223);"/>
      <stop id="stop36" offset="0.2168" style="stop-color: rgb(218, 218, 218);"/>
      <stop id="stop38" offset="0.4798" style="stop-color: rgb(203, 203, 203);"/>
      <stop id="stop40" offset="0.7655" style="stop-color: rgb(179, 179, 179);"/>
      <stop id="stop42" offset="1" style="stop-color: rgb(154, 153, 153);"/>
    </linearGradient>
    <path d="M 59.245,41.385 C 43.047,41.385 24.953,42.297 9.891,48.916 C 0.189,53.179 1.029,58.343 1.029,67.737 C 1.029,77.802 -0.524,84.284 9.891,88.862 C 24.953,95.479 43.047,96.392 59.245,96.392 C 75.441,96.392 93.535,95.479 108.598,88.862 C 119.006,84.286 117.457,77.814 117.457,67.754 C 117.457,58.353 118.305,53.181 108.598,48.916 C 93.535,42.297 75.441,41.385 59.245,41.385" id="path44" style="fill: url(&quot;#XMLID_9_&quot;) rgb(0, 0, 0);"/>
    <linearGradient gradientTransform="matrix(0, 205.546, 205.546, 0, -94893.5, 51026.4)" gradientUnits="userSpaceOnUse" id="XMLID_10_" x1="-248.55811" x2="-246.7719" y1="461.95261" y2="461.95261">
      <stop id="stop47" offset="0" style="stop-color: rgb(255, 255, 255);"/>
      <stop id="stop49" offset="1" style="stop-color: rgb(0, 0, 0);"/>
    </linearGradient>
    <path d="M 0.111,57.429 C 0.111,64.906 0.111,72.383 0.111,79.859 C 0.111,90.566 20.354,93.444 27.76,94.743 C 46.797,98.086 66.714,98.214 85.837,95.515 C 93.259,94.467 118.374,91.75 118.374,80.349 C 119.556,73.283 118.374,65.097 118.374,57.918 C 118.374,47.212 98.13,44.335 90.726,43.035 C 71.688,39.692 51.773,39.563 32.65,42.262 C 25.231,43.311 0.111,46.029 0.111,57.429 M 1.945,80.349 C 1.945,73.234 0.381,64.339 1.945,57.429 C 1.945,48.478 23.466,45.558 29.157,44.6 C 48.818,41.289 69.672,41.289 89.332,44.6 C 95.022,45.558 116.541,48.478 116.541,57.429 C 117.27,60.644 116.541,64.862 116.541,68.142 C 116.541,71.884 117.371,76.685 116.541,80.35 C 116.541,89.303 95.022,92.221 89.332,93.18 C 69.672,96.49 48.817,96.49 29.157,93.18 C 23.464,92.22 1.945,89.302 1.945,80.349" id="path51" style="fill: url(&quot;#XMLID_10_&quot;) rgb(0, 0, 0);"/>
    <path d="M 115.27,54.425 C 115.941,58.998 115.321,64.068 115.321,68.677 C 115.321,72.242 116.537,78.036 113.975,81.045 C 109.704,86.06 101.47,87.95 95.398,89.379 C 83.598,92.156 71.34,93.033 59.246,93.033 C 47.794,93.033 36.231,92.223 25.016,89.81 C 18.434,88.396 10.106,86.571 5.098,81.666 C 2.114,78.743 3.169,73.906 3.169,70.124 C 3.169,65.068 2.441,59.434 3.221,54.424 C 0.18,58.078 1.946,66.815 1.946,71.118 C 1.946,74.632 0.728,80.424 3.248,83.4 C 7.378,88.283 15.358,90.15 21.247,91.573 C 33.632,94.567 46.539,95.475 59.247,95.475 C 71.333,95.475 83.557,94.627 95.378,92.004 C 101.759,90.59 109.836,88.782 114.68,84.004 C 117.603,81.123 116.543,76.277 116.543,72.565 C 116.541,67.979 118.502,58.308 115.27,54.425" id="path53" style="fill: rgb(198, 198, 198);"/>
    <path d="M 115.32,61.056 C 115.32,64.153 105.793,67.612 103.821,68.399 C 90.73,73.625 76.141,74.982 62.174,75.171 C 46.926,75.378 31.117,74.118 16.682,68.857 C 15.899,68.572 1.982,62.652 3.19,60.984 C 3.454,60.621 14.862,65.167 15.639,65.384 C 30.681,69.621 46.639,70.529 62.19,70.362 C 76.086,70.215 90.293,69.138 103.693,65.217 C 104.532,64.973 115.32,61.664 115.32,61.056" id="path55" style="fill: rgb(229, 229, 229);"/>
    <path d="M 6.055,52.496 C 10.969,57.404 19.151,59.187 25.676,60.572 C 36.673,62.906 48.02,63.767 59.245,63.767 C 69.704,63.767 80.236,62.996 90.518,61.035 C 97.71,59.663 107.017,57.91 112.436,52.496 C 107.523,47.588 99.34,45.805 92.814,44.421 C 81.818,42.087 70.472,41.227 59.245,41.227 C 48.786,41.227 38.254,41.997 27.972,43.959 C 20.78,45.33 11.475,47.083 6.055,52.496" id="path57" style="fill: rgb(124, 124, 124);"/>
    <linearGradient gradientUnits="userSpaceOnUse" id="XMLID_11_" x1="0.94679999" x2="117.5381" y1="28.517599" y2="28.517599">
      <stop id="stop60" offset="0" style="stop-color: rgb(223, 223, 223);"/>
      <stop id="stop62" offset="0.2168" style="stop-color: rgb(218, 218, 218);"/>
      <stop id="stop64" offset="0.4798" style="stop-color: rgb(203, 203, 203);"/>
      <stop id="stop66" offset="0.7655" style="stop-color: rgb(179, 179, 179);"/>
      <stop id="stop68" offset="1" style="stop-color: rgb(154, 153, 153);"/>
    </linearGradient>
    <path d="M 59.245,1.013 C 43.047,1.013 24.953,1.927 9.891,8.546 C 0.189,12.809 1.029,17.971 1.029,27.365 C 1.029,37.43 -0.524,43.914 9.891,48.49 C 24.953,55.109 43.047,56.023 59.245,56.023 C 75.441,56.023 93.535,55.109 108.598,48.49 C 119.006,43.916 117.457,37.443 117.457,27.384 C 117.457,17.983 118.305,12.811 108.598,8.546 C 93.535,1.927 75.441,1.013 59.245,1.013" id="path70" style="fill: url(&quot;#XMLID_11_&quot;) rgb(0, 0, 0);"/>
    <linearGradient gradientTransform="matrix(0, 205.54, 205.54, 0, -94889.9, 51003)" gradientUnits="userSpaceOnUse" id="XMLID_12_" x1="-248.644" x2="-246.86349" y1="461.95169" y2="461.95169">
      <stop id="stop73" offset="0" style="stop-color: rgb(255, 255, 255);"/>
      <stop id="stop75" offset="1" style="stop-color: rgb(0, 0, 0);"/>
    </linearGradient>
    <path d="M 0.111,17.058 C 0.111,24.535 0.111,32.01 0.111,39.487 C 0.111,50.193 20.355,53.07 27.76,54.37 C 46.797,57.712 66.714,57.843 85.837,55.143 C 93.256,54.095 118.374,51.377 118.374,39.978 C 119.556,32.912 118.374,24.725 118.374,17.549 C 118.374,6.841 98.132,3.965 90.726,2.664 C 71.688,-0.678 51.773,-0.807 32.65,1.893 C 25.229,2.94 0.111,5.657 0.111,17.058 M 1.945,39.978 C 1.945,32.862 0.382,23.969 1.945,17.059 C 1.945,8.105 23.464,5.189 29.157,4.229 C 48.818,0.92 69.672,0.92 89.332,4.229 C 95.025,5.189 116.541,8.105 116.541,17.059 C 117.268,20.275 116.541,24.491 116.541,27.772 C 116.541,31.514 117.371,36.314 116.541,39.978 C 116.541,48.93 95.022,51.848 89.332,52.808 C 69.672,56.117 48.817,56.117 29.157,52.808 C 23.464,51.848 1.945,48.93 1.945,39.978" id="path77" style="fill: url(&quot;#XMLID_12_&quot;) rgb(0, 0, 0);"/>
    <path d="M 115.27,14.055 C 115.958,18.616 115.321,23.704 115.321,28.303 C 115.321,31.868 116.537,37.662 113.975,40.671 C 109.704,45.687 101.471,47.578 95.398,49.007 C 83.598,51.782 71.34,52.66 59.246,52.66 C 47.794,52.66 36.231,51.852 25.016,49.44 C 18.434,48.023 10.104,46.199 5.098,41.294 C 2.114,38.37 3.169,33.533 3.169,29.752 C 3.169,24.709 2.42,19.051 3.221,14.056 C 0.182,17.71 1.946,26.445 1.946,30.748 C 1.946,34.264 0.728,40.053 3.248,43.03 C 7.378,47.912 15.358,49.78 21.247,51.202 C 33.632,54.197 46.539,55.106 59.247,55.106 C 71.333,55.106 83.557,54.258 95.378,51.635 C 101.759,50.22 109.836,48.413 114.68,43.635 C 117.603,40.754 116.543,35.91 116.543,32.197 C 116.541,27.607 118.5,17.938 115.27,14.055" id="path79" style="fill: rgb(198, 198, 198);"/>
    <path d="M 115.32,20.686 C 115.32,23.78 105.789,27.242 103.821,28.027 C 90.73,33.253 76.141,34.612 62.174,34.801 C 46.926,35.008 31.117,33.746 16.682,28.485 C 15.898,28.2 1.985,22.284 3.19,20.614 C 3.452,20.251 14.864,24.795 15.639,25.014 C 30.681,29.249 46.639,30.159 62.19,29.992 C 76.086,29.844 90.293,28.766 103.693,24.847 C 104.532,24.603 115.32,21.29 115.32,20.686" id="path81" style="fill: rgb(229, 229, 229);"/>
    <path d="M 6.406,14.686 C 21.892,23.209 42.971,23.434 60.082,23.269 C 71.844,23.154 83.696,22.469 95.304,20.467 C 100.923,19.497 109.67,18.535 113.851,14.066 C 108.159,9.316 99.467,7.761 92.414,6.473 C 80.549,4.307 68.414,3.652 56.369,3.77 C 45.55,3.876 34.588,4.46 23.972,6.657 C 18.28,7.833 9.974,9.489 6.406,14.686" id="path83" style="fill: rgb(234, 234, 234);"/>
    <path d="M 75.179,7.957 C 83.567,8.118 92.014,8.904 100.172,10.922 C 100.685,11.048 108.56,13.065 108.56,13.324 C 108.56,11.699 96.499,9.545 95.399,9.307 C 83.467,6.721 71.218,5.464 59.014,5.333 C 47.72,5.214 36.309,5.961 25.229,8.233 C 24.061,8.472 12.457,10.459 12.457,12.352 C 12.457,15.595 48.843,17.228 51.305,17.341 C 54.562,17.491 72.052,20.922 67.959,14.694 C 64.02,8.7 69.725,7.852 75.179,7.957" id="path85" style="fill: rgb(244, 244, 244);"/>
    <path d="M 1.712,33.572 C 47.449,47.671 74.84,45.829 118.914,31.923" id="path87" style="fill: none; stroke: rgb(154, 153, 153);"/>
    <path d="M 1.37,72.804 C 47.107,86.904 74.498,85.061 118.572,71.155" id="path89" style="fill: none; stroke: rgb(154, 153, 153);"/>
    <path d="M 0.916,112.063 C 46.653,126.161 74.044,124.319 118.118,110.413" id="path91" style="fill: none; stroke: rgb(154, 153, 153);"/>
  </g>
</svg>